<?xml version="1.0" encoding="UTF-8" standalone="no"?>
<svg
   xmlns="http://www.w3.org/2000/svg"
   viewBox="110 40 250 238"
   xml:space="preserve"
   version="1.1">
  <g transform="matrix(1.3333333,0,0,-1.3333333,0,384.80133)">
    <g>
      <g transform="translate(196.1067,203.2186)">
        <path
          style="fill:#c03fa7;fill-opacity:1;fill-rule:nonzero;stroke:none"
          d="m 0,0 c 0,-25.271 -20.485,-45.757 -45.756,-45.757 -25.27,0 -45.757,20.486 -45.757,45.757 0,25.27 20.487,45.756 45.757,45.756 C -20.485,45.756 0,25.27 0,0" />
      </g>
      <g transform="translate(259.9426,125.0125)">
        <path
          style="fill:#5d3fa1;fill-opacity:1;fill-rule:nonzero;stroke:none"
          d="m 0,0 c 0,-18.688 -15.149,-33.838 -33.837,-33.838 -18.687,0 -33.838,15.15 -33.838,33.838 0,18.687 15.151,33.837 33.838,33.837 C -15.149,33.837 0,18.687 0,0" />
      </g>
      <g transform="translate(147.0305,126.0994)">
        <path
          style="fill:#8bd5d2;fill-opacity:1;fill-rule:nonzero;stroke:none"
          d="m 0,0 c 0,-14.529 -11.778,-26.308 -26.308,-26.308 -14.528,0 -26.306,11.779 -26.306,26.308 0,14.529 11.778,26.308 26.306,26.308 C -11.778,26.308 0,14.529 0,0" />
      </g>
      <g transform="translate(244.469,189.8465)">
        <path
          style="fill:#8bd5d2;fill-opacity:1;fill-rule:nonzero;stroke:none"
          d="m 0,0 c 0,-7.118 -5.771,-12.889 -12.889,-12.889 -7.118,0 -12.888,5.771 -12.888,12.889 0,7.118 5.77,12.889 12.888,12.889 C -5.771,12.889 0,7.118 0,0" />
      </g>
    </g>
  </g>
</svg>
