<?xml version="1.0" encoding="UTF-8" standalone="no"?>
<svg
   xmlns:dc="http://purl.org/dc/elements/1.1/"
   xmlns:cc="http://creativecommons.org/ns#"
   xmlns:rdf="http://www.w3.org/1999/02/22-rdf-syntax-ns#"
   xmlns:svg="http://www.w3.org/2000/svg"
   xmlns="http://www.w3.org/2000/svg"
   viewBox="0 0 472.47867 384.80133"
   height="384.80133"
   width="472.47867"
   xml:space="preserve"
   id="svg2"
   version="1.1"><metadata
     id="metadata8"><rdf:RDF><cc:Work
         rdf:about=""><dc:format>image/svg+xml</dc:format><dc:type
           rdf:resource="http://purl.org/dc/dcmitype/StillImage" /></cc:Work></rdf:RDF></metadata><defs
     id="defs6"><clipPath
       id="clipPath18"
       clipPathUnits="userSpaceOnUse"><path
         id="path16"
         d="M 0,288.601 H 354.359 V 0 H 0 Z" /></clipPath></defs><g
     transform="matrix(1.3333333,0,0,-1.3333333,0,384.80133)"
     id="g10"><g
       id="g12"><g
         clip-path="url(#clipPath18)"
         id="g14"><g
           transform="translate(196.1067,203.2186)"
           id="g20"><path
             id="path22"
             style="fill:#c03fa7;fill-opacity:1;fill-rule:nonzero;stroke:none"
             d="m 0,0 c 0,-25.271 -20.485,-45.757 -45.756,-45.757 -25.27,0 -45.757,20.486 -45.757,45.757 0,25.27 20.487,45.756 45.757,45.756 C -20.485,45.756 0,25.27 0,0" /></g><g
           transform="translate(259.9426,125.0125)"
           id="g24"><path
             id="path26"
             style="fill:#5d3fa1;fill-opacity:1;fill-rule:nonzero;stroke:none"
             d="m 0,0 c 0,-18.688 -15.149,-33.838 -33.837,-33.838 -18.687,0 -33.838,15.15 -33.838,33.838 0,18.687 15.151,33.837 33.838,33.837 C -15.149,33.837 0,18.687 0,0" /></g><g
           transform="translate(147.0305,126.0994)"
           id="g28"><path
             id="path30"
             style="fill:#8bd5d2;fill-opacity:1;fill-rule:nonzero;stroke:none"
             d="m 0,0 c 0,-14.529 -11.778,-26.308 -26.308,-26.308 -14.528,0 -26.306,11.779 -26.306,26.308 0,14.529 11.778,26.308 26.306,26.308 C -11.778,26.308 0,14.529 0,0" /></g><g
           transform="translate(244.469,189.8465)"
           id="g32"><path
             id="path34"
             style="fill:#8bd5d2;fill-opacity:1;fill-rule:nonzero;stroke:none"
             d="m 0,0 c 0,-7.118 -5.771,-12.889 -12.889,-12.889 -7.118,0 -12.888,5.771 -12.888,12.889 0,7.118 5.77,12.889 12.888,12.889 C -5.771,12.889 0,7.118 0,0" /></g><g
           transform="translate(98.551,57.533)"
           id="g36"><path
             id="path38"
             style="fill:#8bd5d2;fill-opacity:1;fill-rule:nonzero;stroke:none"
             d="M 0,0 V 10.183 H 7.432 V 8.117 H 2.527 V 5.923 H 6.568 V 4.016 H 2.527 V 0 Z" /></g><g
           transform="translate(122.7912,59.5408)"
           id="g40"><path
             id="path42"
             style="fill:#8bd5d2;fill-opacity:1;fill-rule:nonzero;stroke:none"
             d="m 0,0 c 0.432,0 0.797,0.084 1.094,0.251 0.299,0.167 0.541,0.39 0.724,0.667 0.186,0.277 0.317,0.595 0.395,0.953 0.076,0.358 0.115,0.725 0.115,1.098 V 8.175 H 4.857 V 2.969 C 4.857,2.261 4.762,1.602 4.572,0.989 4.381,0.378 4.088,-0.158 3.693,-0.617 3.297,-1.075 2.793,-1.437 2.182,-1.699 1.57,-1.963 0.842,-2.094 0,-2.094 c -0.875,0 -1.619,0.139 -2.236,0.416 -0.618,0.278 -1.119,0.648 -1.504,1.112 -0.385,0.463 -0.668,1.001 -0.848,1.613 -0.18,0.611 -0.269,1.252 -0.269,1.922 v 5.206 h 2.529 V 2.969 c 0,-0.393 0.039,-0.766 0.123,-1.119 0.082,-0.354 0.215,-0.669 0.4,-0.947 C -1.619,0.626 -1.381,0.406 -1.088,0.244 -0.795,0.081 -0.432,0 0,0" /></g><g
           transform="translate(142.8987,63.3553)"
           id="g44"><path
             id="path46"
             style="fill:#8bd5d2;fill-opacity:1;fill-rule:nonzero;stroke:none"
             d="M 0,0 V -5.822 H -2.527 V 4.36 h 1.972 L 4.551,-1.62 V 4.36 H 7.078 V -5.822 H 5.043 Z" /></g><g
           transform="translate(169.8069,62.6385)"
           id="g48"><path
             id="path50"
             style="fill:#8bd5d2;fill-opacity:1;fill-rule:nonzero;stroke:none"
             d="M 0,0 C 0,0.449 -0.064,0.858 -0.191,1.227 -0.32,1.594 -0.508,1.912 -0.756,2.18 -1.002,2.447 -1.305,2.653 -1.664,2.797 -2.025,2.939 -2.432,3.012 -2.883,3.012 H -4.441 V -3.04 h 1.558 c 0.463,0 0.873,0.076 1.235,0.229 0.359,0.153 0.66,0.366 0.9,0.638 0.242,0.273 0.428,0.593 0.557,0.961 C -0.064,-0.844 0,-0.439 0,0 M -6.969,-5.105 V 5.077 h 4.086 c 0.904,0 1.696,-0.135 2.375,-0.402 C 0.17,4.407 0.738,4.044 1.195,3.585 1.652,3.126 1.998,2.589 2.229,1.972 2.461,1.355 2.576,0.697 2.576,0 2.576,-0.774 2.447,-1.475 2.189,-2.101 1.934,-2.728 1.566,-3.263 1.088,-3.707 0.609,-4.151 0.033,-4.496 -0.639,-4.74 -1.312,-4.983 -2.061,-5.105 -2.883,-5.105 Z" /></g><g
           transform="translate(189.6526,61.4334)"
           id="g52"><path
             id="path54"
             style="fill:#8bd5d2;fill-opacity:1;fill-rule:nonzero;stroke:none"
             d="M 0,0 -1.279,3.6 -2.59,0 Z m -2.42,6.282 h 2.281 L 3.855,-3.9 H 1.266 L 0.418,-1.62 H -2.99 L -3.824,-3.9 h -2.59 z" /></g><g
           transform="translate(204.3186,62.7098)"
           id="g56"><path
             id="path58"
             style="fill:#8bd5d2;fill-opacity:1;fill-rule:nonzero;stroke:none"
             d="m 0,0 c 0,0.612 0.123,1.222 0.369,1.829 0.248,0.607 0.608,1.15 1.08,1.628 0.473,0.478 1.049,0.864 1.727,1.161 0.679,0.296 1.451,0.444 2.314,0.444 1.028,0 1.92,-0.205 2.674,-0.616 C 8.92,4.035 9.484,3.5 9.854,2.84 L 7.91,1.578 C 7.787,1.846 7.631,2.067 7.439,2.245 7.25,2.422 7.041,2.564 6.816,2.675 6.59,2.785 6.357,2.861 6.121,2.904 5.885,2.947 5.654,2.969 5.428,2.969 4.945,2.969 4.523,2.878 4.164,2.696 3.803,2.515 3.506,2.28 3.27,1.994 3.033,1.707 2.857,1.382 2.744,1.019 2.631,0.655 2.574,0.287 2.574,-0.086 c 0,-0.401 0.069,-0.788 0.201,-1.161 0.133,-0.373 0.327,-0.703 0.579,-0.99 0.251,-0.286 0.554,-0.514 0.91,-0.681 0.355,-0.167 0.752,-0.251 1.195,-0.251 0.227,0 0.459,0.026 0.701,0.079 0.242,0.052 0.473,0.134 0.694,0.243 0.22,0.111 0.423,0.254 0.609,0.431 0.185,0.177 0.334,0.395 0.447,0.652 L 9.977,-2.896 C 9.813,-3.27 9.568,-3.604 9.244,-3.9 8.92,-4.197 8.547,-4.445 8.127,-4.646 7.705,-4.847 7.258,-5 6.785,-5.105 6.312,-5.21 5.85,-5.263 5.396,-5.263 4.605,-5.263 3.879,-5.112 3.215,-4.812 2.553,-4.51 1.98,-4.11 1.504,-3.613 1.025,-3.116 0.654,-2.553 0.393,-1.921 0.131,-1.29 0,-0.65 0,0" /></g><g
           transform="translate(225.8928,59.9276)"
           id="g60"><path
             id="path62"
             style="fill:#8bd5d2;fill-opacity:1;fill-rule:nonzero;stroke:none"
             d="m 0,0 c 0.102,-0.076 0.32,-0.172 0.654,-0.286 0.334,-0.115 0.723,-0.172 1.164,-0.172 0.381,0 0.684,0.06 0.911,0.179 0.226,0.119 0.4,0.303 0.523,0.551 0.125,0.249 0.203,0.568 0.24,0.955 0.035,0.387 0.053,0.848 0.053,1.383 V 7.788 H 6.074 V 2.61 C 6.074,1.836 6.031,1.131 5.943,0.495 5.855,-0.141 5.666,-0.684 5.373,-1.133 5.08,-1.582 4.65,-1.931 4.086,-2.18 3.52,-2.428 2.764,-2.553 1.818,-2.553 c -0.925,0 -1.716,0.211 -2.375,0.632 z" /></g><g
           transform="translate(249.8694,61.4334)"
           id="g64"><path
             id="path66"
             style="fill:#8bd5d2;fill-opacity:1;fill-rule:nonzero;stroke:none"
             d="M 0,0 -1.279,3.6 -2.59,0 Z m -2.42,6.282 h 2.281 L 3.855,-3.9 H 1.266 L 0.418,-1.62 H -2.99 L -3.824,-3.9 h -2.59 z" /></g><g
           transform="translate(98.5627,39.7869)"
           id="g68"><path
             id="path70"
             style="fill:#5d3fa1;fill-opacity:1;fill-rule:nonzero;stroke:none"
             d="M 0,0 V 10.313 H 2.563 V 5.868 l 4.06,4.445 H 9.496 L 5.342,5.708 9.777,0 H 6.857 L 3.719,4.154 2.563,3.035 V 0 Z" /></g><g
           transform="translate(110.6994,44.9285)"
           id="g72"><path
             id="path74"
             style="fill:#5d3fa1;fill-opacity:1;fill-rule:nonzero;stroke:none"
             d="m 0,0 c 0,-0.397 0.061,-0.782 0.186,-1.154 0.125,-0.373 0.31,-0.705 0.554,-0.995 0.246,-0.291 0.549,-0.524 0.914,-0.698 0.366,-0.174 0.782,-0.261 1.25,-0.261 0.489,0 0.916,0.091 1.28,0.276 0.365,0.184 0.668,0.423 0.906,0.719 0.24,0.295 0.42,0.629 0.539,1.002 0.119,0.373 0.18,0.753 0.18,1.14 0,0.397 -0.063,0.782 -0.188,1.155 C 5.496,1.557 5.309,1.886 5.059,2.172 4.809,2.457 4.504,2.685 4.146,2.854 3.787,3.023 3.373,3.108 2.904,3.108 2.414,3.108 1.99,3.019 1.631,2.84 1.271,2.66 0.971,2.426 0.725,2.135 0.48,1.845 0.299,1.513 0.178,1.141 0.059,0.768 0,0.387 0,0 m 2.889,-5.229 c -0.823,0 -1.573,0.15 -2.25,0.451 -0.676,0.299 -1.254,0.694 -1.733,1.183 -0.478,0.49 -0.851,1.048 -1.117,1.678 -0.266,0.629 -0.398,1.278 -0.398,1.946 0,0.678 0.138,1.331 0.414,1.961 0.275,0.629 0.662,1.184 1.156,1.663 0.494,0.479 1.08,0.862 1.756,1.148 0.678,0.285 1.416,0.428 2.219,0.428 0.822,0 1.572,-0.151 2.248,-0.451 C 5.861,4.479 6.439,4.081 6.918,3.588 7.396,3.094 7.766,2.532 8.027,1.902 8.287,1.273 8.416,0.634 8.416,-0.015 8.416,-0.692 8.279,-1.346 8.004,-1.976 7.727,-2.604 7.344,-3.159 6.855,-3.639 6.365,-4.117 5.783,-4.503 5.105,-4.793 4.43,-5.084 3.689,-5.229 2.889,-5.229" /></g><g
           transform="translate(120.1155,45.0301)"
           id="g76"><path
             id="path78"
             style="fill:#5d3fa1;fill-opacity:1;fill-rule:nonzero;stroke:none"
             d="m 0,0 c 0,0.62 0.125,1.237 0.375,1.852 0.25,0.615 0.615,1.165 1.094,1.649 0.478,0.483 1.062,0.876 1.748,1.176 0.687,0.3 1.469,0.45 2.344,0.45 1.041,0 1.943,-0.208 2.709,-0.624 C 9.035,4.086 9.605,3.544 9.98,2.876 L 8.012,1.598 C 7.887,1.869 7.729,2.094 7.535,2.273 7.344,2.452 7.133,2.598 6.902,2.709 6.674,2.82 6.439,2.897 6.201,2.941 5.961,2.985 5.727,3.007 5.498,3.007 5.008,3.007 4.582,2.914 4.217,2.73 3.852,2.547 3.551,2.31 3.311,2.019 3.072,1.729 2.895,1.399 2.779,1.031 2.666,0.663 2.609,0.291 2.609,-0.087 c 0,-0.407 0.067,-0.799 0.202,-1.177 0.136,-0.378 0.332,-0.712 0.585,-1.002 0.256,-0.291 0.563,-0.52 0.922,-0.69 0.36,-0.169 0.764,-0.254 1.211,-0.254 0.229,0 0.465,0.026 0.711,0.08 0.244,0.053 0.479,0.136 0.701,0.247 0.225,0.112 0.43,0.256 0.618,0.436 0.187,0.178 0.337,0.399 0.453,0.661 l 2.093,-1.148 C 9.938,-3.312 9.691,-3.65 9.363,-3.95 9.035,-4.251 8.658,-4.502 8.23,-4.706 7.803,-4.909 7.352,-5.064 6.871,-5.171 6.393,-5.277 5.924,-5.33 5.467,-5.33 4.664,-5.33 3.928,-5.178 3.256,-4.873 2.586,-4.567 2.008,-4.164 1.523,-3.66 1.039,-3.156 0.664,-2.585 0.398,-1.946 0.133,-1.307 0,-0.658 0,0" /></g><g
           transform="translate(141.1994,50.0994)"
           id="g80"><path
             id="path82"
             style="fill:#5d3fa1;fill-opacity:1;fill-rule:nonzero;stroke:none"
             d="m 0,0 v -10.313 h -2.563 v 4.227 h -4.419 v -4.227 H -9.543 V 0 h 2.561 v -3.994 h 4.419 V 0 Z" /></g><g
           transform="translate(148.9455,43.7371)"
           id="g84"><path
             id="path86"
             style="fill:#5d3fa1;fill-opacity:1;fill-rule:nonzero;stroke:none"
             d="M 0,0 -1.297,3.646 -2.623,0 Z m -2.451,6.362 h 2.31 L 3.904,-3.95 H 1.281 L 0.422,-1.641 H -3.029 L -3.873,-3.95 h -2.623 z" /></g><g
           transform="translate(160.5803,47.0779)"
           id="g88"><path
             id="path90"
             style="fill:#5d3fa1;fill-opacity:1;fill-rule:nonzero;stroke:none"
             d="m 0,0 c -0.031,0.039 -0.141,0.111 -0.328,0.218 -0.188,0.106 -0.42,0.218 -0.701,0.334 -0.282,0.116 -0.59,0.218 -0.922,0.305 -0.334,0.087 -0.666,0.131 -1,0.131 -0.916,0 -1.375,-0.286 -1.375,-0.857 0,-0.174 0.051,-0.319 0.148,-0.436 0.1,-0.116 0.246,-0.22 0.438,-0.312 0.193,-0.092 0.435,-0.177 0.726,-0.254 0.291,-0.078 0.631,-0.165 1.016,-0.262 0.531,-0.136 1.01,-0.283 1.437,-0.443 0.426,-0.159 0.788,-0.358 1.084,-0.595 0.297,-0.237 0.526,-0.525 0.688,-0.864 0.162,-0.339 0.242,-0.746 0.242,-1.221 0,-0.58 -0.117,-1.072 -0.351,-1.473 -0.235,-0.403 -0.545,-0.727 -0.93,-0.974 -0.385,-0.246 -0.826,-0.426 -1.326,-0.537 -0.5,-0.112 -1.016,-0.167 -1.547,-0.167 -0.406,0 -0.822,0.029 -1.25,0.087 -0.426,0.058 -0.842,0.142 -1.248,0.255 -0.406,0.11 -0.801,0.244 -1.18,0.399 -0.381,0.154 -0.732,0.334 -1.055,0.537 l 1.125,2.077 c 0.041,-0.049 0.176,-0.14 0.407,-0.276 0.228,-0.136 0.511,-0.272 0.851,-0.406 0.338,-0.136 0.715,-0.257 1.131,-0.364 0.416,-0.106 0.838,-0.16 1.266,-0.16 0.906,0 1.359,0.257 1.359,0.77 0,0.194 -0.068,0.353 -0.203,0.479 -0.137,0.126 -0.324,0.24 -0.563,0.342 -0.24,0.102 -0.523,0.196 -0.851,0.283 -0.328,0.087 -0.686,0.184 -1.07,0.29 -0.51,0.146 -0.952,0.303 -1.327,0.473 -0.375,0.169 -0.685,0.365 -0.929,0.588 -0.244,0.222 -0.428,0.479 -0.547,0.769 -0.119,0.291 -0.18,0.63 -0.18,1.017 0,0.543 0.11,1.021 0.328,1.438 0.219,0.416 0.516,0.768 0.891,1.053 0.375,0.285 0.809,0.501 1.303,0.647 0.496,0.145 1.017,0.217 1.57,0.217 0.385,0 0.766,-0.034 1.141,-0.101 C -1.357,2.938 -0.998,2.852 -0.654,2.745 -0.312,2.639 0.008,2.518 0.305,2.382 0.602,2.246 0.875,2.111 1.125,1.976 Z" /></g><g
           transform="translate(163.0647,41.5731)"
           id="g92"><path
             id="path94"
             style="fill:#5d3fa1;fill-opacity:1;fill-rule:nonzero;stroke:none"
             d="M 0,0 5.777,6.435 H 0.219 V 8.526 H 8.73 V 6.739 L 3.232,0.306 H 8.793 V -1.786 H 0 Z" /></g><g
           transform="translate(184.4592,44.9578)"
           id="g96"><path
             id="path98"
             style="fill:#5d3fa1;fill-opacity:1;fill-rule:nonzero;stroke:none"
             d="M 0,0 C 0,0.455 -0.064,0.869 -0.195,1.241 -0.324,1.614 -0.516,1.937 -0.766,2.207 -1.014,2.479 -1.322,2.687 -1.686,2.832 -2.051,2.978 -2.463,3.05 -2.92,3.05 h -1.578 v -6.129 h 1.578 c 0.469,0 0.885,0.077 1.25,0.232 0.363,0.155 0.668,0.37 0.912,0.647 0.246,0.275 0.434,0.599 0.563,0.972 C -0.064,-0.854 0,-0.445 0,0 M -7.059,-5.171 V 5.142 h 4.139 c 0.916,0 1.719,-0.136 2.404,-0.408 C 0.172,4.464 0.748,4.096 1.211,3.631 1.674,3.166 2.023,2.621 2.258,1.997 2.492,1.372 2.609,0.706 2.609,0 c 0,-0.784 -0.13,-1.494 -0.39,-2.128 -0.262,-0.635 -0.633,-1.177 -1.117,-1.627 -0.485,-0.45 -1.067,-0.799 -1.75,-1.046 -0.682,-0.247 -1.44,-0.37 -2.272,-0.37 z" /></g><g
           transform="translate(190.7073,44.9285)"
           id="g100"><path
             id="path102"
             style="fill:#5d3fa1;fill-opacity:1;fill-rule:nonzero;stroke:none"
             d="m 0,0 c 0,-0.397 0.061,-0.782 0.186,-1.154 0.125,-0.373 0.31,-0.705 0.554,-0.995 0.246,-0.291 0.549,-0.524 0.914,-0.698 0.366,-0.174 0.782,-0.261 1.25,-0.261 0.489,0 0.916,0.091 1.28,0.276 0.365,0.184 0.668,0.423 0.906,0.719 0.24,0.295 0.42,0.629 0.539,1.002 0.119,0.373 0.18,0.753 0.18,1.14 0,0.397 -0.063,0.782 -0.188,1.155 C 5.496,1.557 5.309,1.886 5.059,2.172 4.809,2.457 4.504,2.685 4.146,2.854 3.787,3.023 3.373,3.108 2.904,3.108 2.414,3.108 1.99,3.019 1.631,2.84 1.271,2.66 0.971,2.426 0.725,2.135 0.48,1.845 0.299,1.513 0.178,1.141 0.059,0.768 0,0.387 0,0 m 2.889,-5.229 c -0.823,0 -1.573,0.15 -2.25,0.451 -0.676,0.299 -1.254,0.694 -1.733,1.183 -0.478,0.49 -0.851,1.048 -1.117,1.678 -0.266,0.629 -0.398,1.278 -0.398,1.946 0,0.678 0.138,1.331 0.414,1.961 0.275,0.629 0.662,1.184 1.156,1.663 0.494,0.479 1.08,0.862 1.756,1.148 0.678,0.285 1.416,0.428 2.219,0.428 0.822,0 1.572,-0.151 2.248,-0.451 C 5.861,4.479 6.439,4.081 6.918,3.588 7.396,3.094 7.766,2.532 8.027,1.902 8.287,1.273 8.416,0.634 8.416,-0.015 8.416,-0.692 8.279,-1.346 8.004,-1.976 7.727,-2.604 7.344,-3.159 6.855,-3.639 6.365,-4.117 5.783,-4.503 5.105,-4.793 4.43,-5.084 3.689,-5.229 2.889,-5.229" /></g><g
           transform="translate(203.3244,45.1902)"
           id="g104"><path
             id="path106"
             style="fill:#5d3fa1;fill-opacity:1;fill-rule:nonzero;stroke:none"
             d="m 0,0 h 2.094 c 0.301,0 0.562,0.121 0.781,0.363 0.219,0.241 0.328,0.595 0.328,1.06 0,0.242 -0.035,0.45 -0.101,0.625 C 3.033,2.222 2.941,2.367 2.828,2.483 2.713,2.6 2.582,2.685 2.438,2.737 2.291,2.791 2.145,2.817 2,2.817 H 0 Z M -2.561,-5.403 V 4.909 H 2.172 C 2.703,4.909 3.189,4.808 3.631,4.604 4.074,4.4 4.455,4.134 4.771,3.805 5.09,3.476 5.34,3.103 5.521,2.687 5.703,2.271 5.795,1.849 5.795,1.423 5.795,0.968 5.709,0.532 5.537,0.116 5.365,-0.301 5.125,-0.674 4.818,-1.003 4.512,-1.332 4.139,-1.593 3.701,-1.787 3.266,-1.98 2.781,-2.077 2.25,-2.077 H 0 v -3.326 z" /></g><path
           id="path108"
           style="fill:#5d3fa1;fill-opacity:1;fill-rule:nonzero;stroke:none"
           d="m 210.649,50.099 h 2.563 V 39.786 h -2.563 z" /><g
           transform="translate(215.4905,39.7869)"
           id="g110"><path
             id="path112"
             style="fill:#5d3fa1;fill-opacity:1;fill-rule:nonzero;stroke:none"
             d="M 0,0 V 10.313 H 2.563 V 2.092 H 7.936 V 0 Z" /></g><g
           transform="translate(227.344,45.6834)"
           id="g114"><path
             id="path116"
             style="fill:#5d3fa1;fill-opacity:1;fill-rule:nonzero;stroke:none"
             d="M 0,0 V -5.896 H -2.561 V 4.416 h 2 L 4.607,-1.641 V 4.416 H 7.17 V -5.896 H 5.107 Z" /></g><g
           transform="translate(241.5569,41.8201)"
           id="g118"><path
             id="path120"
             style="fill:#5d3fa1;fill-opacity:1;fill-rule:nonzero;stroke:none"
             d="M 0,0 C 0.437,0 0.807,0.085 1.109,0.254 1.41,0.424 1.654,0.648 1.842,0.93 2.029,1.211 2.162,1.532 2.24,1.896 2.318,2.259 2.357,2.629 2.357,3.007 V 8.279 H 4.92 V 3.007 C 4.92,2.29 4.822,1.622 4.631,1.002 4.437,0.383 4.141,-0.159 3.74,-0.624 3.34,-1.089 2.828,-1.455 2.209,-1.721 1.59,-1.987 0.854,-2.12 0,-2.12 c -0.885,0 -1.641,0.14 -2.266,0.421 -0.623,0.281 -1.13,0.656 -1.521,1.126 C -4.178,-0.104 -4.465,0.44 -4.646,1.061 -4.828,1.68 -4.92,2.329 -4.92,3.007 v 5.272 h 2.561 V 3.007 c 0,-0.398 0.043,-0.775 0.125,-1.133 0.084,-0.358 0.218,-0.678 0.406,-0.959 0.187,-0.28 0.43,-0.503 0.726,-0.668 C -0.805,0.082 -0.437,0 0,0" /></g><g
           transform="translate(247.8186,42.2127)"
           id="g122"><path
             id="path124"
             style="fill:#5d3fa1;fill-opacity:1;fill-rule:nonzero;stroke:none"
             d="m 0,0 c 0.104,-0.078 0.326,-0.175 0.664,-0.291 0.338,-0.116 0.731,-0.174 1.18,-0.174 0.385,0 0.691,0.061 0.92,0.182 0.23,0.121 0.406,0.306 0.531,0.558 C 3.42,0.527 3.5,0.85 3.537,1.241 3.574,1.634 3.592,2.101 3.592,2.644 V 7.887 H 6.154 V 2.644 C 6.154,1.859 6.109,1.145 6.021,0.501 5.932,-0.144 5.74,-0.692 5.443,-1.147 5.146,-1.603 4.711,-1.956 4.139,-2.208 3.566,-2.46 2.801,-2.586 1.844,-2.586 c -0.938,0 -1.74,0.213 -2.406,0.64 z" /></g></g></g></g></svg>